
        <svg xmlns="http://www.w3.org/2000/svg" xmlns:xlink="http://www.w3.org/1999/xlink" version="1.1" width="3160.0449248911978" height="878.5415282223755" viewBox="0 0 3160.0449248911978 878.5415282223755">

			<g transform="scale(8.002246244559878) translate(10, 10)">
				<defs id="SvgjsDefs1340"/><g id="SvgjsG1341" featureKey="nRdZyp-0" transform="matrix(2.067563759027885,0,0,2.067563759027885,16.159542479437693,-1.5877279107566393)" fill="#fff"><title xmlns="http://www.w3.org/2000/svg">email_send</title><description xmlns="http://www.w3.org/2000/svg">Created with Sketch (http://www.bohemiancoding.com/sketch)</description><g xmlns="http://www.w3.org/2000/svg" stroke="none" stroke-width="1" fill-rule="evenodd" xmlns:sketch="http://www.bohemiancoding.com/sketch/ns" sketch:type="MSPage"><path d="M-0.0771644663,19.8598052 L14.9132058,24.6188789 L16.515072,23.0170128 C16.515072,23.0170128 5.86006322,19.5968577 5.91753353,19.5723704 C16.8388977,14.9189244 35.8352629,6.57479481 35.8352629,6.57479481 L16.8933983,25.5166594 L23.2573593,43.1943289 L41.1889727,7.15933182 L36.9112874,11.4370171 L23.5889883,37.2438251 L19.368272,25.8702128 L44.4705627,0.767922061 L-0.0771644663,19.8598052 Z M-0.0771644663,19.8598052" sketch:type="MSShapeGroup"/></g></g><g id="SvgjsG1342" featureKey="Q4qmbg-0" transform="matrix(4.65080568892182,0,0,4.65080568892182,115.04666347350148,-13.788950536929281)" fill="#fff"><path d="M8.02 15 c-0.08 -1.46 -0.74 -2.32 -2.26 -2.32 c-0.42 0 -0.78 0.06 -1.08 0.18 c-0.92 0.42 -1.26 1.2 -1.26 2.16 c0 0.32 0.04 0.62 0.14 0.88 c0.3 1.04 1.2 1.42 2.2 1.42 c1.52 0 2.26 -0.82 2.26 -2.32 z M11.82 20 l-3 0 c-0.2 -0.5 -0.38 -1 -0.5 -1.52 c-0.68 1.12 -1.72 1.62 -3 1.62 c-2.86 0 -4.9 -2.4 -4.9 -5.14 c0 -3.16 2.36 -5.06 5.34 -5.06 c3.18 0 5.18 2.04 5.26 5.1 c0.02 0.26 0.02 0.56 0.02 0.92 c0 1.4 0.22 2.8 0.78 4.08 z M12.405270833333333 10 l3 0 l0 10 l-3 0 l0 -10 z M13.905270833333333 9.06 c-1.02 0 -1.74 -0.72 -1.74 -1.74 c0 -1.04 0.72 -1.72 1.74 -1.72 c1.04 0 1.72 0.68 1.72 1.72 c0 1.06 -0.66 1.74 -1.72 1.74 z M19.990541666666665 15 l0 5 l-3 0 l0 -4.98 c0 -3.32 2.44 -5.12 5.52 -5.12 c0.1 0 0.24 0 0.38 0.02 s0.3 0.06 0.44 0.08 l0 2.9 c-0.1 -0.02 -0.22 -0.04 -0.36 -0.06 s-0.26 -0.04 -0.36 -0.04 c-0.5 0 -0.9 0.06 -1.24 0.16 c-0.56 0.2 -1.06 0.58 -1.24 1.18 c-0.1 0.26 -0.14 0.56 -0.14 0.86 z M29.395812499999998 10.34 l0 2.78 l-2.46 0 l0 6.88 l-3 0 l0 -9.98 c0 -3.32 2.44 -5.12 5.52 -5.12 c0.1 0 0.24 0 0.38 0.02 s0.3 0.06 0.44 0.08 l0 2.9 c-0.1 -0.02 -0.22 -0.04 -0.36 -0.06 s-0.26 -0.04 -0.36 -0.04 c-0.5 0 -0.9 0.06 -1.24 0.16 c-0.56 0.2 -1.06 0.58 -1.24 1.18 c-0.1 0.26 -0.14 0.56 -0.14 0.86 l0 0.34 l2.46 0 z M35.16108333333333 17.32 c1.46 0 2.3 -0.86 2.3 -2.32 s-0.84 -2.32 -2.3 -2.32 s-2.3 0.86 -2.3 2.32 s0.84 2.32 2.3 2.32 z M35.16108333333333 20.1 c-3.08 0 -5.3 -2.04 -5.3 -5.1 c0 -3.16 2.3 -5.1 5.3 -5.1 c3.1 0 5.3 2.04 5.3 5.1 c0 3.14 -2.32 5.1 -5.3 5.1 z M41.26635416666666 6 l3 0 l0 14 l-3 0 l0 -14 z M52.871624999999995 15 c0 -1.5 -0.74 -2.32 -2.26 -2.32 c-0.42 0 -0.78 0.06 -1.08 0.18 c-0.56 0.26 -0.94 0.64 -1.12 1.24 c-0.1 0.28 -0.14 0.58 -0.14 0.9 s0.04 0.62 0.14 0.9 c0.16 0.58 0.58 1 1.12 1.22 c0.3 0.14 0.66 0.2 1.08 0.2 c1.52 0 2.26 -0.82 2.26 -2.32 z M52.871624999999995 11 l0 -5 l3 0 l0 9 c0 3.18 -2.26 5.1 -5.28 5.1 c-3.08 0 -5.32 -2 -5.32 -5.06 c0 -2.82 2.08 -5.14 4.92 -5.14 c1.06 0 1.98 0.3 2.68 1.1 z"/></g>
			</g>
		</svg>
