<svg width="2895" height="1628" viewBox="0 0 2895 1628" fill="none" xmlns="http://www.w3.org/2000/svg">
<rect width="2895" height="1628" fill="#181E29"/>
<path fill-rule="evenodd" clip-rule="evenodd" d="M730.702 791.842L860.28 832.98L874.127 819.134C874.127 819.134 782.024 789.569 782.521 789.358C876.926 749.133 1041.13 677.005 1041.13 677.005L877.397 840.741L932.408 993.549L1087.41 682.058L1050.43 719.035L935.275 942.112L898.791 843.797L1115.78 626.81L730.702 791.842Z" fill="#BD2E51"/>
<path d="M1300.74 860.825C1299.18 832.437 1286.35 815.714 1256.8 815.714C1248.63 815.714 1241.63 816.881 1235.8 819.214C1217.91 827.381 1211.3 842.548 1211.3 861.214C1211.3 867.436 1212.07 873.269 1214.02 878.325C1219.85 898.547 1237.35 905.936 1256.8 905.936C1286.35 905.936 1300.74 889.991 1300.74 860.825ZM1374.63 958.046H1316.3C1312.41 948.324 1308.91 938.602 1306.57 928.491C1293.35 950.268 1273.13 959.991 1248.24 959.991C1192.63 959.991 1152.96 913.324 1152.96 860.047C1152.96 798.604 1198.85 761.66 1256.8 761.66C1318.63 761.66 1357.52 801.326 1359.07 860.825C1359.46 865.881 1359.46 871.714 1359.46 878.714C1359.46 905.936 1363.74 933.158 1374.63 958.046ZM1386.01 763.604H1444.34V958.046H1386.01V763.604ZM1415.17 745.326C1395.34 745.326 1381.34 731.327 1381.34 711.493C1381.34 691.271 1395.34 678.049 1415.17 678.049C1435.4 678.049 1448.62 691.271 1448.62 711.493C1448.62 732.104 1435.79 745.326 1415.17 745.326ZM1533.5 860.825V958.046H1475.17V861.214C1475.17 796.659 1522.61 761.66 1582.5 761.66C1584.44 761.66 1587.16 761.66 1589.89 762.048C1592.61 762.437 1595.72 763.215 1598.44 763.604V819.992C1596.5 819.603 1594.16 819.214 1591.44 818.826C1588.72 818.437 1586.39 818.048 1584.44 818.048C1574.72 818.048 1566.94 819.214 1560.33 821.159C1549.44 825.048 1539.72 832.437 1536.22 844.103C1534.28 849.159 1533.5 854.992 1533.5 860.825ZM1716.38 770.215V824.27H1668.54V958.046H1610.21V763.993C1610.21 699.438 1657.65 664.438 1717.54 664.438C1719.49 664.438 1722.21 664.438 1724.93 664.827C1727.65 665.216 1730.77 665.994 1733.49 666.383V722.771C1731.54 722.382 1729.21 721.993 1726.49 721.604C1723.77 721.216 1721.43 720.827 1719.49 720.827C1709.77 720.827 1701.99 721.993 1695.38 723.938C1684.49 727.827 1674.77 735.215 1671.27 746.882C1669.32 751.937 1668.54 757.771 1668.54 763.604V770.215H1716.38ZM1828.48 905.936C1856.87 905.936 1873.2 889.214 1873.2 860.825C1873.2 832.437 1856.87 815.714 1828.48 815.714C1800.09 815.714 1783.76 832.437 1783.76 860.825C1783.76 889.214 1800.09 905.936 1828.48 905.936ZM1828.48 959.991C1768.59 959.991 1725.42 920.324 1725.42 860.825C1725.42 799.381 1770.14 761.66 1828.48 761.66C1888.75 761.66 1931.53 801.326 1931.53 860.825C1931.53 921.88 1886.42 959.991 1828.48 959.991ZM1947.19 685.827H2005.52V958.046H1947.19V685.827ZM2172.85 860.825C2172.85 831.659 2158.46 815.714 2128.9 815.714C2120.73 815.714 2113.73 816.881 2107.9 819.214C2097.01 824.27 2089.62 831.659 2086.12 843.325C2084.18 848.77 2083.4 854.603 2083.4 860.825C2083.4 867.047 2084.18 872.88 2086.12 878.325C2089.24 889.603 2097.4 897.769 2107.9 902.047C2113.73 904.769 2120.73 905.936 2128.9 905.936C2158.46 905.936 2172.85 889.991 2172.85 860.825ZM2172.85 783.048V685.827H2231.18V860.825C2231.18 922.658 2187.23 959.991 2128.51 959.991C2068.62 959.991 2025.07 921.102 2025.07 861.603C2025.07 806.77 2065.51 761.66 2120.73 761.66C2141.35 761.66 2159.23 767.493 2172.85 783.048Z" fill="white"/>
</svg>
