<svg width="618" height="504" viewBox="0 0 618 504" fill="none" xmlns="http://www.w3.org/2000/svg">
<path d="M105.874 61.3549C106.033 57.0985 109.333 53.4964 113.551 52.9735L527.218 1.69759C531.94 1.11222 536.027 4.57685 536.216 9.32541L553.901 454.051C554.09 458.796 550.31 462.922 545.576 463.137L98.7209 483.52C93.9843 483.736 90.1916 479.952 90.3701 475.187L105.874 61.3549Z" fill="#181E29"/>
<path d="M109.884 65.1646C110.038 60.8679 113.39 57.2395 117.652 56.7579L493.3 14.3083C497.993 13.778 502.024 17.2362 502.209 21.951L517.909 421.829C518.094 426.55 514.35 430.661 509.641 430.909L104.766 452.173C100.012 452.422 96.1862 448.638 96.357 443.857L109.884 65.1646Z" fill="url(#paint0_linear_115_2)"/>
<path opacity="0.5" d="M293 59.5311C293 57.5138 294.502 55.8122 296.504 55.562L304.504 54.562C306.891 54.2636 309 56.1251 309 58.5311V67.2422C309 69.3544 307.358 71.1026 305.25 71.2344L297.25 71.7344C294.947 71.8783 293 70.0495 293 67.7422V59.5311Z" fill="url(#paint1_linear_115_2)"/>
<path opacity="0.5" d="M189 268.531C189 266.514 190.502 264.812 192.504 264.562L200.504 263.562C202.891 263.264 205 265.125 205 267.531V276.242C205 278.354 203.358 280.103 201.25 280.234L193.25 280.734C190.947 280.878 189 279.049 189 276.742V268.531Z" fill="url(#paint2_linear_115_2)"/>
<path opacity="0.5" d="M350 148.531C350 146.514 351.502 144.812 353.504 144.562L361.504 143.562C363.891 143.264 366 145.125 366 147.531V156.242C366 158.354 364.358 160.103 362.25 160.234L354.25 160.734C351.947 160.878 350 159.049 350 156.742V148.531Z" fill="url(#paint3_linear_115_2)"/>
<path opacity="0.5" d="M467 133.149C467 131.293 468.396 129.734 470.24 129.529L470.934 129.452C473.103 129.211 475 130.909 475 133.091C475 135.035 473.482 136.64 471.541 136.748L470.845 136.786C468.757 136.902 467 135.241 467 133.149Z" fill="url(#paint4_linear_115_2)"/>
<path opacity="0.12" d="M406 402.914C406 400.875 407.533 399.163 409.558 398.938L413.558 398.494C415.928 398.23 418 400.085 418 402.469V405.549C418 407.672 416.342 409.425 414.222 409.543L410.222 409.765C407.929 409.893 406 408.068 406 405.772V402.914Z" fill="white"/>
<path fill-rule="evenodd" clip-rule="evenodd" d="M97.6948 96.2265C97.8686 92.1394 101.066 88.7023 105.12 88.2449L446.263 49.757C450.792 49.246 454.666 52.6203 454.781 57.176L456.639 131.002C456.747 135.311 453.437 139.083 449.151 139.535L280.671 157.299C276.929 157.694 274.029 160.75 273.832 164.508C273.587 169.187 277.567 172.986 282.23 172.523L450.352 155.816C454.846 155.369 458.654 158.736 458.764 163.253L460.635 240.068C460.741 244.423 457.359 248.217 453.024 248.607L281.359 264.041C277.276 264.408 274.083 267.722 273.869 271.817C273.608 276.798 277.797 280.867 282.769 280.461L451.634 266.649C456.02 266.29 459.714 269.553 459.902 273.951L463.477 357.751C463.668 362.228 460.156 366.151 455.69 366.45L95.6534 390.571C91.0871 390.877 87.366 387.279 87.4986 382.685L89.7759 303.734C89.8977 299.511 93.2534 295.962 97.45 295.619L258.232 282.468C262.294 282.135 265.485 278.85 265.698 274.78C265.957 269.832 261.774 265.802 256.839 266.246L99.8546 280.36C95.2149 280.778 91.3763 277.147 91.5186 272.475L93.7683 198.592C93.8951 194.427 97.1681 190.913 101.303 190.502L258.829 174.848C262.556 174.478 265.454 171.441 265.65 167.701C265.894 163.046 261.919 159.276 257.284 159.765L103.096 176.022C98.3729 176.52 94.4386 172.811 94.641 168.051L97.6948 96.2265Z" fill="#181E29"/>
<rect x="101" y="357.247" width="41.8437" height="5" rx="2.5" transform="rotate(-4.45 101 357.247)" fill="white"/>
<rect x="148.399" y="353.5" width="100.425" height="5" rx="2.5" transform="rotate(-4.45 148.399 353.5)" fill="#BD2E51"/>
<rect x="254.269" y="345.2" width="8.36873" height="5" rx="2.5" transform="rotate(-4.45 254.269 345.2)" fill="#BD2E51"/>
<rect x="270" y="343.896" width="50.2124" height="5" rx="2.5" transform="rotate(-4.45 270 343.896)" fill="white"/>
<rect x="326" y="339.649" width="8.36873" height="5" rx="2.5" transform="rotate(-4.45 326 339.649)" fill="#BD2E51"/>
<rect x="99.9805" y="370.438" width="70.0881" height="5" rx="2.5" transform="rotate(-4.45 99.9805 370.438)" fill="#BD2E51"/>
<rect x="148" y="339.6" width="75.3186" height="5" rx="2.5" transform="rotate(-4.45 148 339.6)" fill="white"/>
<rect x="227.662" y="333.2" width="58.5811" height="5" rx="2.5" transform="rotate(-4.45 227.662 333.2)" fill="#BD2E51"/>
<rect x="103.382" y="259.956" width="41.8437" height="5" rx="2.5" transform="rotate(-5.5 103.382 259.956)" fill="white"/>
<rect x="152.009" y="255.3" width="8.36873" height="5" rx="2.5" transform="rotate(-5.5 152.009 255.3)" fill="#BD2E51"/>
<rect x="167.008" y="253.716" width="50.2124" height="5" rx="2.5" transform="rotate(-5.5 167.008 253.716)" fill="white"/>
<rect x="223.053" y="248.5" width="8.36873" height="5" rx="2.5" transform="rotate(-5.5 223.053 248.5)" fill="#BD2E51"/>
<rect x="236.997" y="247" width="50.2124" height="5" rx="2.5" transform="rotate(-5.5 236.997 247)" fill="white"/>
<rect x="104.411" y="245.82" width="41.8437" height="5" rx="2.5" transform="rotate(-5.5 104.411 245.82)" fill="white"/>
<rect x="154.159" y="241" width="100.425" height="5" rx="2.5" transform="rotate(-5.5 154.159 241)" fill="#BD2E51"/>
<rect x="258.756" y="231" width="117.162" height="5" rx="2.5" transform="rotate(-5.5 258.756 231)" fill="white"/>
<path d="M106.628 237.317L106.943 230.01L108.483 229.868L108.223 235.902L111.346 235.616L111.291 236.889L106.628 237.317ZM112.31 236.796L112.625 229.488L114.165 229.347L113.905 235.381L117.028 235.094L116.973 236.368L112.31 236.796ZM118.308 228.967L120.207 228.793L122.001 233.518L122.087 233.511L124.304 228.417L126.203 228.242L125.888 235.55L124.395 235.687L124.6 230.931L124.539 230.936L122.451 235.83L121.434 235.923L119.753 231.358L119.692 231.363L119.487 236.137L117.993 236.275L118.308 228.967Z" fill="white"/>
<rect x="136.062" y="228.6" width="137.038" height="5" rx="2.5" transform="rotate(-5.5 136.062 228.6)" fill="white"/>
<rect x="107.998" y="142.803" width="41.8437" height="5" rx="2.5" transform="rotate(-6.5 107.998 142.803)" fill="white"/>
<rect x="153.802" y="137.5" width="100.425" height="5" rx="2.5" transform="rotate(-6.5 153.802 137.5)" fill="#BD2E51"/>
<rect x="257.794" y="125.7" width="8.36873" height="5" rx="2.5" transform="rotate(-6.5 257.794 125.7)" fill="#BD2E51"/>
<rect x="270.298" y="124.2" width="50.2124" height="5" rx="2.5" transform="rotate(-6.5 270.298 124.2)" fill="white"/>
<rect x="324" y="118.1" width="8.36873" height="5" rx="2.5" transform="rotate(-6.5 324 118.1)" fill="#BD2E51"/>
<rect x="107.012" y="157.633" width="70.0881" height="5" rx="2.5" transform="rotate(-6.5 107.012 157.633)" fill="#BD2E51"/>
<rect x="109.969" y="101.875" width="8" height="8" rx="4" transform="rotate(-6.5 109.969 101.875)" fill="#BD2E51"/>
<rect x="107" y="203.369" width="8" height="8" rx="4" transform="rotate(-6 107 203.369)" fill="#BD2E51"/>
<rect x="104.098" y="308.719" width="8" height="8" rx="4" transform="rotate(-4.45 104.098 308.719)" fill="#BD2E51"/>
<rect x="122.969" y="100.339" width="8" height="8" rx="4" transform="rotate(-6.5 122.969 100.339)" fill="#FBD250"/>
<rect x="120" y="202.136" width="8" height="8" rx="4" transform="rotate(-6 120 202.136)" fill="#FBD250"/>
<rect x="117.098" y="307.8" width="8" height="8" rx="4" transform="rotate(-4.45 117.098 307.8)" fill="#FBD250"/>
<rect x="135.969" y="98.8785" width="8" height="8" rx="4" transform="rotate(-6.5 135.969 98.8785)" fill="#2EBD9B"/>
<rect x="133" y="200.836" width="8" height="8" rx="4" transform="rotate(-6 133 200.836)" fill="#2EBD9B"/>
<rect x="130.098" y="306.7" width="8" height="8" rx="4" transform="rotate(-4.45 130.098 306.7)" fill="#2EBD9B"/>
<path d="M113.652 128.317C113.627 128.011 113.501 127.786 113.273 127.641C113.045 127.496 112.733 127.446 112.336 127.491C112.067 127.522 111.838 127.586 111.651 127.684C111.464 127.779 111.32 127.899 111.218 128.043C111.119 128.187 111.068 128.344 111.065 128.513C111.057 128.654 111.084 128.773 111.145 128.871C111.209 128.968 111.298 129.049 111.411 129.113C111.524 129.174 111.655 129.224 111.804 129.263C111.953 129.3 112.112 129.328 112.282 129.347L112.98 129.435C113.319 129.473 113.63 129.54 113.912 129.636C114.194 129.731 114.438 129.86 114.643 130.023C114.848 130.186 115.005 130.388 115.115 130.628C115.227 130.868 115.281 131.152 115.277 131.479C115.266 131.96 115.136 132.391 114.887 132.771C114.642 133.149 114.291 133.461 113.834 133.707C113.381 133.95 112.836 134.108 112.201 134.18C111.57 134.252 111.023 134.217 110.559 134.076C110.097 133.935 109.739 133.688 109.485 133.337C109.233 132.983 109.106 132.524 109.104 131.96L110.702 131.778C110.714 132.039 110.785 132.251 110.914 132.412C111.045 132.571 111.222 132.682 111.444 132.746C111.669 132.808 111.923 132.822 112.208 132.789C112.488 132.758 112.731 132.689 112.939 132.584C113.149 132.478 113.313 132.346 113.43 132.187C113.547 132.028 113.607 131.854 113.611 131.665C113.614 131.488 113.565 131.346 113.463 131.237C113.364 131.129 113.216 131.044 113.019 130.982C112.825 130.92 112.586 130.87 112.303 130.834L111.456 130.716C110.801 130.629 110.286 130.437 109.911 130.137C109.536 129.838 109.356 129.398 109.369 128.817C109.376 128.341 109.51 127.911 109.771 127.527C110.034 127.142 110.392 126.824 110.843 126.574C111.294 126.323 111.805 126.165 112.374 126.101C112.954 126.035 113.458 126.077 113.886 126.227C114.317 126.377 114.65 126.616 114.884 126.944C115.119 127.272 115.236 127.67 115.235 128.137L113.652 128.317Z" fill="white"/>
<path d="M116.345 133.597L116.495 125.738L121.758 125.139L121.731 126.509L118.12 126.92L118.084 128.793L121.425 128.412L121.399 129.782L118.058 130.163L118.022 132.039L121.649 131.626L121.623 132.996L116.345 133.597Z" fill="white"/>
<path d="M122.92 132.848L123.07 124.989L124.721 124.801L124.597 131.29L127.946 130.908L127.919 132.278L122.92 132.848Z" fill="white"/>
<path d="M129.013 132.154L129.163 124.295L134.425 123.695L134.399 125.065L130.788 125.477L130.752 127.349L134.093 126.969L134.066 128.339L130.726 128.719L130.69 130.596L134.317 130.182L134.29 131.552L129.013 132.154Z" fill="white"/>
<path d="M142.576 125.512L140.906 125.702C140.88 125.488 140.821 125.302 140.73 125.144C140.639 124.984 140.521 124.851 140.376 124.748C140.231 124.645 140.063 124.572 139.871 124.53C139.681 124.488 139.475 124.479 139.251 124.505C138.847 124.551 138.493 124.692 138.189 124.928C137.885 125.162 137.647 125.48 137.474 125.883C137.302 126.283 137.21 126.755 137.2 127.3C137.189 127.86 137.263 128.322 137.421 128.684C137.581 129.046 137.81 129.307 138.106 129.467C138.402 129.628 138.747 129.685 139.141 129.64C139.362 129.615 139.568 129.562 139.757 129.482C139.949 129.402 140.119 129.297 140.269 129.167C140.419 129.035 140.543 128.882 140.643 128.707C140.745 128.532 140.818 128.338 140.86 128.124L142.53 127.941C142.48 128.307 142.365 128.667 142.186 129.022C142.009 129.374 141.773 129.698 141.478 129.994C141.186 130.288 140.839 130.534 140.437 130.733C140.037 130.929 139.587 131.056 139.087 131.113C138.39 131.192 137.77 131.105 137.227 130.85C136.687 130.595 136.263 130.185 135.957 129.62C135.653 129.055 135.509 128.345 135.526 127.491C135.542 126.634 135.716 125.886 136.048 125.249C136.38 124.611 136.823 124.104 137.378 123.726C137.934 123.347 138.554 123.118 139.241 123.039C139.693 122.988 140.112 123.004 140.496 123.088C140.882 123.172 141.223 123.319 141.518 123.53C141.814 123.739 142.052 124.01 142.233 124.341C142.417 124.672 142.532 125.063 142.576 125.512Z" fill="white"/>
<path d="M143.489 124.03L143.515 122.66L149.929 121.929L149.903 123.299L147.512 123.571L147.388 130.06L145.756 130.246L145.88 123.757L143.489 124.03Z" fill="white"/>
<path d="M106.657 342.95C106.644 342.643 106.526 342.413 106.303 342.26C106.08 342.107 105.77 342.046 105.372 342.077C105.101 342.098 104.871 342.154 104.681 342.245C104.49 342.334 104.342 342.449 104.235 342.589C104.131 342.73 104.074 342.884 104.065 343.053C104.052 343.194 104.075 343.314 104.133 343.414C104.193 343.513 104.279 343.597 104.389 343.665C104.5 343.73 104.629 343.785 104.776 343.829C104.924 343.871 105.082 343.905 105.251 343.93L105.946 344.043C106.283 344.093 106.592 344.171 106.87 344.277C107.149 344.382 107.388 344.52 107.587 344.69C107.786 344.861 107.935 345.068 108.036 345.312C108.14 345.556 108.184 345.841 108.168 346.168C108.139 346.648 107.994 347.074 107.732 347.446C107.473 347.814 107.111 348.113 106.647 348.343C106.185 348.569 105.635 348.708 104.997 348.757C104.364 348.806 103.819 348.752 103.36 348.595C102.904 348.437 102.555 348.178 102.313 347.817C102.074 347.454 101.964 346.991 101.982 346.428L103.585 346.303C103.588 346.565 103.652 346.778 103.775 346.944C103.9 347.108 104.073 347.225 104.292 347.297C104.515 347.366 104.769 347.39 105.054 347.368C105.335 347.346 105.581 347.286 105.792 347.188C106.006 347.09 106.174 346.964 106.297 346.809C106.419 346.655 106.486 346.483 106.496 346.294C106.506 346.118 106.462 345.974 106.364 345.862C106.269 345.749 106.124 345.659 105.929 345.59C105.738 345.521 105.501 345.463 105.219 345.416L104.377 345.268C103.725 345.159 103.218 344.948 102.854 344.635C102.49 344.322 102.325 343.876 102.36 343.296C102.383 342.821 102.532 342.396 102.807 342.021C103.084 341.646 103.453 341.341 103.913 341.107C104.373 340.873 104.888 340.733 105.46 340.689C106.041 340.644 106.543 340.704 106.966 340.869C107.391 341.035 107.715 341.286 107.938 341.622C108.161 341.958 108.263 342.36 108.245 342.827L106.657 342.95Z" fill="white"/>
<path d="M109.16 348.323L109.591 340.474L114.872 340.064L114.796 341.432L111.173 341.714L111.07 343.584L114.422 343.323L114.347 344.691L110.995 344.952L110.892 346.826L114.531 346.543L114.455 347.911L109.16 348.323Z" fill="white"/>
<path d="M115.757 347.81L116.189 339.961L117.846 339.832L117.489 346.313L120.849 346.051L120.774 347.419L115.757 347.81Z" fill="white"/>
<path d="M121.871 347.334L122.302 339.486L127.583 339.075L127.508 340.443L123.884 340.725L123.781 342.595L127.133 342.334L127.058 343.702L123.706 343.963L123.603 345.837L127.242 345.554L127.167 346.922L121.871 347.334Z" fill="white"/>
<path d="M135.663 341.182L133.988 341.313C133.969 341.098 133.917 340.91 133.832 340.749C133.747 340.585 133.634 340.448 133.492 340.34C133.351 340.231 133.185 340.153 132.995 340.104C132.807 340.055 132.601 340.039 132.376 340.057C131.971 340.088 131.612 340.217 131.3 340.442C130.988 340.664 130.738 340.974 130.551 341.37C130.365 341.764 130.256 342.232 130.227 342.777C130.196 343.336 130.253 343.8 130.398 344.168C130.545 344.535 130.764 344.804 131.054 344.975C131.345 345.146 131.688 345.216 132.083 345.185C132.305 345.168 132.512 345.122 132.704 345.049C132.898 344.975 133.073 344.876 133.227 344.753C133.381 344.626 133.511 344.477 133.617 344.306C133.726 344.135 133.805 343.943 133.855 343.731L135.53 343.608C135.467 343.972 135.339 344.327 135.148 344.676C134.958 345.021 134.711 345.337 134.406 345.622C134.103 345.905 133.748 346.139 133.339 346.324C132.932 346.505 132.478 346.616 131.975 346.655C131.277 346.709 130.66 346.599 130.127 346.325C129.596 346.051 129.187 345.626 128.901 345.051C128.618 344.475 128.5 343.761 128.547 342.907C128.594 342.051 128.794 341.311 129.149 340.685C129.503 340.06 129.965 339.569 130.533 339.212C131.101 338.852 131.73 338.645 132.419 338.592C132.873 338.557 133.29 338.588 133.671 338.685C134.054 338.783 134.39 338.942 134.677 339.164C134.965 339.383 135.193 339.662 135.363 340C135.535 340.338 135.635 340.732 135.663 341.182Z" fill="white"/>
<path d="M136.629 339.733L136.704 338.365L143.14 337.865L143.065 339.233L140.666 339.419L140.31 345.9L138.672 346.027L139.028 339.547L136.629 339.733Z" fill="white"/>
<rect x="155.015" y="122.671" width="75.3186" height="5" rx="2.5" transform="rotate(-6.5 155.015 122.671)" fill="white"/>
<rect x="234.006" y="113.756" width="58.5811" height="5" rx="2.5" transform="rotate(-6.5 234.006 113.756)" fill="#BD2E51"/>
<path d="M543.719 314.373C543.881 312.426 545.426 310.881 547.373 310.719L551.289 310.393C553.754 310.187 555.813 312.246 555.607 314.711L555.281 318.627C555.119 320.574 553.574 322.119 551.627 322.281L547.711 322.607C545.246 322.813 543.187 320.754 543.393 318.289L543.719 314.373Z" fill="#BD2E51"/>
<path d="M75 130.681C75 128.6 76.5946 126.867 78.6678 126.694L82.2891 126.393C84.7541 126.187 86.8128 128.246 86.6074 130.711L86.2789 134.653C86.1176 136.588 84.5892 138.128 82.6549 138.304L79.3621 138.603C77.0197 138.816 75 136.972 75 134.62V130.681Z" fill="#BD2E51"/>
<path d="M70 347.681C70 345.6 71.5946 343.867 73.6678 343.694L77.2891 343.393C79.7541 343.187 81.8128 345.246 81.6074 347.711L81.2789 351.653C81.1176 353.588 79.5892 355.128 77.6549 355.304L74.3621 355.603C72.0197 355.816 70 353.972 70 351.62V347.681Z" fill="#BD2E51"/>
<path opacity="0.5" d="M160 59.5311C160 57.5138 161.502 55.8122 163.504 55.562L171.504 54.562C173.891 54.2636 176 56.1251 176 58.5311V67.2422C176 69.3544 174.358 71.1026 172.25 71.2344L164.25 71.7344C161.947 71.8783 160 70.0495 160 67.7422V59.5311Z" fill="url(#paint5_linear_115_2)"/>
<rect x="59" y="131" width="8" height="8" rx="4" fill="#BD2E51"/>
<rect x="524" y="314" width="8" height="8" rx="4" fill="#BD2E51"/>
<rect x="54" y="348" width="8" height="8" rx="4" fill="#BD2E51"/>
<path d="M2.85349 118.443C2.93769 116.464 4.45728 114.845 6.42673 114.635L45.5769 110.471C47.9401 110.219 50 112.072 50 114.448V154.313C50 156.396 48.4015 158.13 46.3254 158.3L5.5144 161.631C3.11699 161.827 1.0903 159.878 1.19257 157.475L2.85349 118.443Z" fill="white"/>
<path fill-rule="evenodd" clip-rule="evenodd" d="M23.4569 128.144C24.3402 128.159 25.1005 127.457 25.1551 126.575C25.2097 125.693 24.538 124.966 23.6547 124.951C22.7714 124.935 22.0111 125.637 21.9564 126.519C21.9018 127.401 22.5736 128.128 23.4569 128.144ZM26.7545 126.603C26.6623 128.091 25.5654 129.323 24.1639 129.653L24.0052 132.215C25.1059 132.421 26.0531 133.006 26.7157 133.829L28.761 132.493C28.3431 131.153 28.8803 129.61 30.1541 128.778C31.6638 127.792 33.6366 128.177 34.5604 129.64C35.4842 131.102 35.0091 133.087 33.4994 134.073C32.2256 134.905 30.6222 134.76 29.5973 133.817L27.4729 135.204C27.6638 135.763 27.7503 136.372 27.7109 137.008C27.6658 137.737 27.4601 138.424 27.1302 139.038L28.5196 140.078C29.6591 139.172 31.2769 139.084 32.4449 139.958C33.8294 140.995 34.0577 142.992 32.9549 144.419C31.8522 145.846 29.8359 146.162 28.4515 145.126C27.2834 144.251 26.9383 142.693 27.5213 141.37L26.1362 140.333C25.3977 141.03 24.4537 141.508 23.42 141.662L23.2613 144.223C24.619 144.602 25.5609 145.87 25.4687 147.358C25.3595 149.121 23.8388 150.526 22.0723 150.495C20.3057 150.464 18.9622 149.009 19.0714 147.246C19.1636 145.758 20.2604 144.526 21.662 144.195L21.8207 141.634C19.575 141.214 17.9679 139.214 18.1149 136.841C18.2619 134.467 20.1131 132.528 22.4059 132.187L22.5645 129.626C21.2069 129.247 20.2649 127.979 20.3571 126.491C20.4663 124.728 21.987 123.323 23.7536 123.354C25.5202 123.385 26.8637 124.839 26.7545 126.603ZM22.7151 140.117C24.4817 140.148 26.0024 138.744 26.1116 136.98C26.2208 135.217 24.8773 133.762 23.1107 133.731C21.3441 133.701 19.8235 135.105 19.7142 136.869C19.605 138.632 20.9485 140.087 22.7151 140.117ZM23.8694 147.33C23.8148 148.211 23.0545 148.914 22.1712 148.898C21.2879 148.883 20.6161 148.156 20.6707 147.274C20.7254 146.392 21.4857 145.69 22.369 145.705C23.2523 145.721 23.924 146.448 23.8694 147.33ZM30.4599 132.318L30.4605 132.319C30.9227 133.05 31.9085 133.242 32.663 132.749C33.4179 132.256 33.6554 131.264 33.1935 130.533C32.7317 129.801 31.7453 129.608 30.9904 130.102C30.2359 130.594 29.9982 131.586 30.4592 132.317L30.4599 132.318ZM31.4466 141.25C30.755 140.732 29.7481 140.89 29.1964 141.601L29.1933 141.605C28.6437 142.319 28.7583 143.316 29.4498 143.834C30.1421 144.352 31.1502 144.194 31.7016 143.481C32.253 142.767 32.1388 141.769 31.4466 141.25Z" fill="black"/>
<path d="M569 292.674C569 290.596 570.591 288.865 572.661 288.688L611.838 285.354C614.107 285.161 616.079 286.898 616.174 289.173L617.84 329.159C617.929 331.305 616.309 333.138 614.169 333.313L573.325 336.647C570.996 336.837 569 334.998 569 332.66V292.674Z" fill="white"/>
<g clip-path="url(#clip0_115_2)">
<path d="M592.695 312.453L587.049 310.072L577.25 305.939C577.24 305.931 577.223 305.932 577.215 305.933C576.858 305.801 576.538 306.173 576.696 306.504L582.534 318.264L582.535 318.266C582.541 318.278 582.546 318.29 582.553 318.301C582.788 318.738 583.24 318.981 583.715 319.051C583.755 319.056 583.784 319.061 583.832 319.067C583.88 319.073 583.947 319.082 584.004 319.081C584.013 319.081 584.022 319.08 584.031 319.08L584.038 319.08C584.045 319.08 584.052 319.079 584.059 319.079L584.068 319.079C584.074 319.079 584.081 319.078 584.087 319.078L584.098 319.077C584.105 319.077 584.112 319.077 584.119 319.076C590.221 319.206 596.319 318.673 602.305 317.485C602.378 317.479 602.448 317.469 602.516 317.456C602.538 317.452 602.559 317.447 602.581 317.443C602.583 317.442 602.586 317.441 602.589 317.44C602.603 317.437 602.618 317.433 602.632 317.43C602.653 317.425 602.674 317.419 602.695 317.413C602.737 317.4 602.756 317.391 602.812 317.366C602.868 317.341 602.962 317.298 603.019 317.263C603.077 317.229 603.116 317.198 603.164 317.162C603.223 317.117 603.279 317.071 603.335 317.021C603.359 316.999 603.376 316.984 603.393 316.965L603.383 316.96L592.695 312.453Z" fill="#FF4B4B"/>
<path d="M606.79 303.354L606.781 303.355L597.845 309.127L603.732 316.432L607.426 303.816L607.424 303.799C607.512 303.429 607.116 303.136 606.79 303.354Z" fill="#7D353B"/>
<path d="M592.305 302.249C592.035 301.92 591.514 301.966 591.314 302.336L587.049 310.072L592.695 312.453L603.394 316.965C603.452 316.896 603.498 316.83 603.547 316.761C603.616 316.659 603.679 316.551 603.732 316.432L597.845 309.127L592.305 302.249Z" fill="#BD4043"/>
</g>
<path d="M1.85349 334.443C1.93769 332.464 3.45728 330.845 5.42673 330.635L44.5769 326.471C46.9401 326.219 49 328.072 49 330.448V370.313C49 372.396 47.4015 374.131 45.3254 374.3L4.5144 377.631C2.11699 377.827 0.0903023 375.878 0.192567 373.475L1.85349 334.443Z" fill="white"/>
<path fill-rule="evenodd" clip-rule="evenodd" d="M36.0531 351.542L33.2118 353.135L35.9961 354.811C36.1626 354.912 36.3077 355.046 36.4231 355.204C36.5386 355.363 36.6222 355.542 36.669 355.733C36.7159 355.924 36.7252 356.123 36.6963 356.317C36.6675 356.512 36.6011 356.699 36.5009 356.867C36.4007 357.036 36.2687 357.183 36.1124 357.3C35.9561 357.417 35.7786 357.502 35.59 357.549C35.4015 357.597 35.2055 357.606 35.0134 357.577C34.8212 357.548 34.6366 357.481 34.4701 357.379L29.4818 354.351C29.2532 354.212 29.066 354.013 28.9399 353.775C28.8139 353.536 28.7537 353.268 28.7657 352.998C28.7717 352.881 28.7915 352.765 28.8247 352.653C28.9345 352.277 29.1853 351.959 29.5235 351.768L34.6143 348.926C34.785 348.83 34.9726 348.769 35.1665 348.747C35.3604 348.724 35.5568 348.741 35.7443 348.795C35.9319 348.85 36.1069 348.941 36.2595 349.064C36.4121 349.188 36.5392 349.34 36.6335 349.513C36.7283 349.684 36.7884 349.873 36.8105 350.068C36.8326 350.264 36.8162 350.462 36.7622 350.65C36.7082 350.839 36.6177 351.015 36.496 351.168C36.3743 351.322 36.2237 351.449 36.0531 351.542ZM33.2518 359.451L28.2651 356.429C28.042 356.294 27.7879 356.22 27.528 356.216C27.2681 356.211 27.0115 356.275 26.7837 356.402C26.5559 356.529 26.3649 356.714 26.2295 356.939C26.0942 357.164 26.0192 357.42 26.0121 357.683L25.9098 363.546C25.9161 363.936 26.0716 364.308 26.3436 364.584C26.6156 364.859 26.9828 365.017 27.3677 365.024C27.7526 365.031 28.125 364.886 28.4065 364.62C28.6879 364.354 28.8564 363.987 28.8762 363.598L28.9336 360.312L31.7245 362.002C31.891 362.104 32.0756 362.171 32.2678 362.201C32.46 362.23 32.656 362.22 32.8446 362.173C33.0333 362.125 33.2109 362.041 33.3672 361.924C33.5236 361.807 33.6557 361.66 33.756 361.491C33.8564 361.323 33.9229 361.136 33.9518 360.941C33.9808 360.746 33.9716 360.548 33.9248 360.357C33.878 360.166 33.7946 359.986 33.6791 359.828C33.5637 359.669 33.4186 359.536 33.2521 359.434L33.2518 359.451ZM27.5455 353.615L25.4082 355.68C25.3352 355.746 25.2413 355.784 25.1432 355.788L24.5267 355.777C24.4291 355.769 24.3369 355.728 24.2657 355.66L22.2139 353.515C22.1498 353.442 22.1128 353.348 22.1092 353.25L22.12 352.628C22.1274 352.53 22.1676 352.437 22.234 352.365L24.3594 350.293C24.4331 350.228 24.5266 350.191 24.6243 350.187L25.2408 350.198C25.3385 350.204 25.4309 350.245 25.5019 350.313L27.5588 352.458C27.6221 352.532 27.6585 352.626 27.6618 352.725L27.6509 353.347C27.6445 353.445 27.6049 353.537 27.5388 353.608L27.5455 353.615ZM25.882 353.001C25.8757 352.9 25.8359 352.805 25.7689 352.73L25.1732 352.112C25.1018 352.045 25.0096 352.004 24.9122 351.997L24.89 351.996C24.7928 352 24.6997 352.037 24.6268 352.102L24.0099 352.699C23.9435 352.772 23.9039 352.866 23.8976 352.965L23.8972 352.988C23.8998 353.085 23.9363 353.179 24.0002 353.252L24.5993 353.868C24.6702 353.936 24.7617 353.976 24.8587 353.984L24.8809 353.984C24.9786 353.98 25.072 353.943 25.1458 353.878L25.7628 353.278C25.8295 353.207 25.8703 353.115 25.8784 353.017L25.882 353.001ZM16.5157 346.527L21.5043 349.541C21.7276 349.676 21.982 349.749 22.242 349.754C22.5021 349.758 22.7589 349.694 22.9868 349.567C23.2147 349.44 23.4059 349.255 23.5414 349.03C23.6768 348.805 23.7518 348.548 23.7589 348.285L23.8612 342.427C23.8549 342.037 23.6994 341.665 23.4274 341.39C23.1554 341.114 22.7882 340.956 22.4033 340.949C22.0184 340.943 21.646 341.088 21.3645 341.354C21.0831 341.62 20.9146 341.986 20.8948 342.375L20.8374 345.661L18.0431 343.969C17.8766 343.868 17.692 343.8 17.4998 343.771C17.3076 343.742 17.1116 343.751 16.923 343.799C16.7343 343.846 16.5568 343.931 16.4004 344.048C16.244 344.165 16.1119 344.312 16.0116 344.48C15.9113 344.649 15.8447 344.836 15.8158 345.03C15.7868 345.225 15.796 345.424 15.8428 345.615C15.8896 345.806 15.9731 345.985 16.0885 346.144C16.2039 346.302 16.349 346.436 16.5155 346.537L16.5157 346.527ZM27.5207 349.847C27.8179 349.876 28.1168 349.813 28.378 349.666L33.4673 346.814C33.6372 346.719 33.7869 346.59 33.9078 346.436C34.0286 346.282 34.1184 346.105 34.1718 345.916C34.2252 345.726 34.2413 345.528 34.2192 345.333C34.197 345.137 34.137 344.948 34.0427 344.776C33.9483 344.604 33.8214 344.452 33.6692 344.33C33.517 344.208 33.3425 344.117 33.1556 344.063C32.7782 343.954 32.3734 344.001 32.0302 344.194L29.1817 345.802L29.2391 342.516C29.2328 342.126 29.0773 341.754 28.8053 341.478C28.5333 341.203 28.1661 341.045 27.7812 341.038C27.3963 341.031 27.0239 341.176 26.7424 341.442C26.461 341.708 26.2925 342.075 26.2727 342.464L26.1703 348.327C26.1632 348.706 26.2987 349.075 26.5494 349.357C26.8001 349.639 27.1472 349.814 27.5207 349.847ZM22.2503 356.128C21.9531 356.098 21.6539 356.161 21.393 356.309L16.2954 359.149C15.9522 359.342 15.6988 359.665 15.5909 360.047C15.4829 360.429 15.5294 360.839 15.72 361.187C15.9105 361.534 16.2296 361.791 16.607 361.9C16.9844 362.009 17.3893 361.962 17.7324 361.769L20.584 360.177L20.5267 363.463C20.5329 363.852 20.6885 364.224 20.9605 364.5C21.2325 364.776 21.5997 364.934 21.9846 364.94C22.3694 364.947 22.7419 364.802 23.0234 364.536C23.3048 364.27 23.4733 363.904 23.4931 363.514L23.5956 357.641C23.6015 357.263 23.466 356.898 23.2165 356.617C22.9669 356.336 22.6218 356.162 22.2503 356.128ZM20.932 353.36C21.0349 353.037 21.0263 352.689 20.9076 352.373C20.7889 352.056 20.5672 351.79 20.279 351.618L15.2958 348.592C14.9592 348.389 14.5569 348.329 14.1766 348.425C13.7963 348.521 13.469 348.765 13.2659 349.105C13.1654 349.273 13.0987 349.46 13.0698 349.654C13.0409 349.848 13.0503 350.046 13.0975 350.237C13.1447 350.427 13.2288 350.606 13.3448 350.764C13.4608 350.921 13.6065 351.054 13.7734 351.154L16.5574 352.844L13.7163 354.422C13.5464 354.517 13.3967 354.646 13.2757 354.8C13.1547 354.953 13.0648 355.13 13.0111 355.319C12.9574 355.508 12.9411 355.706 12.9629 355.901C12.9847 356.097 13.0444 356.286 13.1384 356.458C13.2324 356.63 13.359 356.781 13.5109 356.904C13.6628 357.026 13.837 357.117 14.0236 357.172C14.2103 357.226 14.4057 357.242 14.5986 357.22C14.7916 357.198 14.9784 357.137 15.1483 357.042L20.2341 354.19C20.5615 354.012 20.8103 353.716 20.9302 353.36L20.932 353.36ZM37.0097 343.914L36.7825 343.91L36.7776 344.192L37.0031 344.196C37.1072 344.198 37.1747 344.151 37.1762 344.061C37.1778 343.971 37.1173 343.916 37.008 343.914L37.0097 343.914ZM36.5121 343.646L37.0245 343.655C37.3011 343.66 37.4829 343.817 37.4787 344.056C37.4784 344.122 37.4607 344.187 37.4272 344.245C37.3938 344.302 37.3459 344.349 37.2885 344.381L37.4833 344.675L37.4822 344.734L37.1936 344.729L36.9986 344.449L36.7732 344.445L36.7684 344.721L36.4917 344.717L36.5121 343.646ZM37.9199 344.228C37.9304 344.097 37.9141 343.965 37.8719 343.841C37.8296 343.717 37.7624 343.604 37.6745 343.507C37.5866 343.411 37.4799 343.334 37.3611 343.282C37.2423 343.229 37.1141 343.202 36.9845 343.203C36.4192 343.193 36.0363 343.6 36.0259 344.195C36.016 344.762 36.3841 345.208 36.9493 345.218C37.0789 345.223 37.2081 345.201 37.3288 345.153C37.4496 345.105 37.5591 345.032 37.6506 344.939C37.742 344.846 37.8133 344.735 37.86 344.612C37.9066 344.49 37.9276 344.359 37.9216 344.228L37.9199 344.228ZM38.1555 344.232C38.1438 344.905 37.69 345.459 36.9385 345.446C36.1871 345.433 35.7718 344.858 35.7834 344.19C35.7951 343.523 36.2439 342.963 36.9816 342.976C37.7194 342.989 38.1656 343.557 38.1538 344.232L38.1555 344.232Z" fill="#29B5E8"/>
<defs>
<linearGradient id="paint0_linear_115_2" x1="341.613" y1="51.3537" x2="26.9528" y2="424.418" gradientUnits="userSpaceOnUse">
<stop stop-color="#BD2E51"/>
<stop offset="1" stop-color="#BD2E51" stop-opacity="0"/>
</linearGradient>
<linearGradient id="paint1_linear_115_2" x1="307" y1="50" x2="288.333" y2="89.3333" gradientUnits="userSpaceOnUse">
<stop stop-color="white"/>
<stop offset="1" stop-color="#BD2E51" stop-opacity="0"/>
</linearGradient>
<linearGradient id="paint2_linear_115_2" x1="203" y1="259" x2="184.333" y2="298.333" gradientUnits="userSpaceOnUse">
<stop stop-color="white"/>
<stop offset="1" stop-color="#BD2E51" stop-opacity="0"/>
</linearGradient>
<linearGradient id="paint3_linear_115_2" x1="364" y1="139" x2="345.333" y2="178.333" gradientUnits="userSpaceOnUse">
<stop stop-color="white"/>
<stop offset="1" stop-color="#BD2E51" stop-opacity="0"/>
</linearGradient>
<linearGradient id="paint4_linear_115_2" x1="474" y1="127.222" x2="466.33" y2="145.405" gradientUnits="userSpaceOnUse">
<stop stop-color="white"/>
<stop offset="1" stop-color="#BD2E51" stop-opacity="0"/>
</linearGradient>
<linearGradient id="paint5_linear_115_2" x1="174" y1="50" x2="155.333" y2="89.3333" gradientUnits="userSpaceOnUse">
<stop stop-color="white"/>
<stop offset="1" stop-color="#BD2E51" stop-opacity="0"/>
</linearGradient>
<clipPath id="clip0_115_2">
<rect width="31" height="17" fill="white" transform="translate(576.318 303.383) rotate(-5)"/>
</clipPath>
</defs>
</svg>
